<svg xmlns="http://www.w3.org/2000/svg" viewBox="0 0 1000 1000"><rect width="1000" height="1000" fill="#000"/><circle cx="770" cy="579" r="73" fill="hsl(100,79%,32%)" fill-opacity="0.41"/><circle cx="184" cy="88" r="24" fill="hsl(109,51%,63%)" fill-opacity="0.55"/><circle cx="737" cy="329" r="64" fill="hsl(240,70%,47%)" fill-opacity="0.57"/><circle cx="164" cy="371" r="59" fill="hsl(351,77%,57%)" fill-opacity="0.80"/><circle cx="533" cy="548" r="117" fill="hsl(197,85%,67%)" fill-opacity="0.70"/><circle cx="12" cy="77" r="25" fill="hsl(75,45%,38%)" fill-opacity="0.35"/><circle cx="893" cy="88" r="100" fill="hsl(131,74%,54%)" fill-opacity="0.41"/><circle cx="721" cy="838" r="39" fill="hsl(169,47%,34%)" fill-opacity="0.69"/><circle cx="582" cy="899" r="67" fill="hsl(313,88%,55%)" fill-opacity="0.74"/><circle cx="228" cy="218" r="166" fill="hsl(286,87%,36%)" fill-opacity="0.45"/><circle cx="741" cy="911" r="47" fill="hsl(50,60%,50%)" fill-opacity="0.48"/><circle cx="975" cy="389" r="171" fill="hsl(329,58%,66%)" fill-opacity="0.64"/><circle cx="466" cy="869" r="40" fill="hsl(162,47%,53%)" fill-opacity="0.60"/><circle cx="871" cy="291" r="218" fill="hsl(62,89%,49%)" fill-opacity="0.31"/><circle cx="945" cy="164" r="130" fill="hsl(348,66%,54%)" fill-opacity="0.77"/><circle cx="34" cy="587" r="159" fill="hsl(276,50%,38%)" fill-opacity="0.44"/><circle cx="95" cy="206" r="79" fill="hsl(53,66%,65%)" fill-opacity="0.81"/><circle cx="817" cy="764" r="63" fill="hsl(249,77%,65%)" fill-opacity="0.64"/><circle cx="484" cy="401" r="185" fill="hsl(137,72%,70%)" fill-opacity="0.68"/><circle cx="761" cy="844" r="48" fill="hsl(343,53%,62%)" fill-opacity="0.59"/><path d="M40 242 L158 37 L676 0 L173 1 L803 567 L202 382 L340 111" fill="none" stroke="#f7162c" stroke-width="2"/></svg>