<svg xmlns="http://www.w3.org/2000/svg" viewBox="0 0 1000 1000"><rect width="1000" height="1000" fill="#000"/><circle cx="40" cy="176" r="192" fill="hsl(319,48%,57%)" fill-opacity="0.38"/><circle cx="523" cy="168" r="237" fill="hsl(313,54%,47%)" fill-opacity="0.34"/><circle cx="504" cy="271" r="58" fill="hsl(120,52%,42%)" fill-opacity="0.77"/><circle cx="68" cy="494" r="159" fill="hsl(22,64%,68%)" fill-opacity="0.76"/><circle cx="46" cy="747" r="135" fill="hsl(359,85%,66%)" fill-opacity="0.37"/><circle cx="735" cy="156" r="59" fill="hsl(242,72%,70%)" fill-opacity="0.78"/><circle cx="487" cy="848" r="151" fill="hsl(119,78%,43%)" fill-opacity="0.58"/><circle cx="638" cy="700" r="189" fill="hsl(18,75%,66%)" fill-opacity="0.57"/><circle cx="403" cy="549" r="125" fill="hsl(129,61%,46%)" fill-opacity="0.63"/><circle cx="168" cy="498" r="71" fill="hsl(199,73%,41%)" fill-opacity="0.41"/><circle cx="661" cy="744" r="132" fill="hsl(9,83%,58%)" fill-opacity="0.79"/><circle cx="931" cy="586" r="149" fill="hsl(299,79%,31%)" fill-opacity="0.56"/><circle cx="144" cy="378" r="75" fill="hsl(141,55%,38%)" fill-opacity="0.31"/><circle cx="675" cy="55" r="110" fill="hsl(276,40%,41%)" fill-opacity="0.78"/><circle cx="351" cy="311" r="26" fill="hsl(25,88%,36%)" fill-opacity="0.32"/><circle cx="688" cy="648" r="32" fill="hsl(214,83%,41%)" fill-opacity="0.37"/><circle cx="298" cy="409" r="154" fill="hsl(254,81%,45%)" fill-opacity="0.48"/><circle cx="511" cy="406" r="88" fill="hsl(295,51%,55%)" fill-opacity="0.43"/><circle cx="874" cy="473" r="61" fill="hsl(54,41%,65%)" fill-opacity="0.70"/><circle cx="801" cy="226" r="166" fill="hsl(102,62%,51%)" fill-opacity="0.57"/><circle cx="514" cy="475" r="24" fill="hsl(71,52%,69%)" fill-opacity="0.76"/><circle cx="544" cy="940" r="154" fill="hsl(225,90%,60%)" fill-opacity="0.78"/><circle cx="252" cy="100" r="29" fill="hsl(305,41%,37%)" fill-opacity="0.80"/><circle cx="864" cy="961" r="149" fill="hsl(235,42%,50%)" fill-opacity="0.81"/><circle cx="150" cy="360" r="196" fill="hsl(114,81%,52%)" fill-opacity="0.84"/><circle cx="86" cy="990" r="22" fill="hsl(102,88%,31%)" fill-opacity="0.65"/><circle cx="490" cy="456" r="56" fill="hsl(205,83%,39%)" fill-opacity="0.68"/></svg>